<svg width="25" height="25" viewBox="0 0 25 25" fill="none" xmlns="http://www.w3.org/2000/svg">
<g clip-path="url(#clip0)">
<path d="M16.9805 2.5H8.01913C4.97588 2.5 2.5 4.976 2.5 8.01924V16.9806C2.5 20.024 4.97588 22.4999 8.01913 22.4999H16.9805C20.024 22.4999 22.4999 20.0239 22.4999 16.9806V8.01924C22.5 4.976 20.024 2.5 16.9805 2.5ZM20.7255 16.9806C20.7255 19.0455 19.0455 20.7254 16.9806 20.7254H8.01913C5.95433 20.7255 4.27449 19.0455 4.27449 16.9806V8.01924C4.27449 5.95445 5.95433 4.27449 8.01913 4.27449H16.9805C19.0454 4.27449 20.7254 5.95445 20.7254 8.01924V16.9806H20.7255Z" fill="#FAF5F5"/>
<path d="M12.4999 7.34668C9.65824 7.34668 7.34644 9.65848 7.34644 12.5001C7.34644 15.3417 9.65824 17.6534 12.4999 17.6534C15.3416 17.6534 17.6534 15.3417 17.6534 12.5001C17.6534 9.65848 15.3416 7.34668 12.4999 7.34668ZM12.4999 15.8788C10.6368 15.8788 9.12092 14.3631 9.12092 12.5C9.12092 10.6368 10.6367 9.12105 12.4999 9.12105C14.3631 9.12105 15.8789 10.6368 15.8789 12.5C15.8789 14.3631 14.363 15.8788 12.4999 15.8788Z" fill="#FAF5F5"/>
<path d="M17.8696 5.84204C17.5278 5.84204 17.1919 5.98045 16.9505 6.22296C16.7078 6.46429 16.5684 6.80026 16.5684 7.14333C16.5684 7.48533 16.708 7.82118 16.9505 8.0637C17.1918 8.30503 17.5278 8.44462 17.8696 8.44462C18.2127 8.44462 18.5475 8.30503 18.79 8.0637C19.0325 7.82118 19.1709 7.48522 19.1709 7.14333C19.1709 6.80026 19.0325 6.46429 18.79 6.22296C18.5487 5.98045 18.2127 5.84204 17.8696 5.84204Z" fill="#FAF5F5"/>
</g>
<defs>
<clipPath id="clip0">
<rect width="20" height="20" fill="white" transform="translate(2.5 2.5)"/>
</clipPath>
</defs>
</svg>
