<svg width="25" height="25" viewBox="0 0 25 25" fill="none" xmlns="http://www.w3.org/2000/svg">
<path d="M22.8027 3.75H2.19727C0.983252 3.75 0 4.73936 0 5.94727V19.1309C0 20.3459 0.990479 21.3281 2.19727 21.3281H22.8027C24.0066 21.3281 25 20.3501 25 19.1309V5.94727C25 4.7415 24.0207 3.75 22.8027 3.75ZM22.495 5.21484C22.0461 5.66138 14.3205 13.3463 14.0537 13.6117C13.6387 14.0267 13.0869 14.2552 12.5 14.2552C11.9131 14.2552 11.3613 14.0267 10.9449 13.6103C10.7655 13.4318 3.12515 5.83174 2.50498 5.21484H22.495ZM1.46484 18.8327V6.24634L7.79482 12.543L1.46484 18.8327ZM2.50591 19.8633L8.8334 13.576L9.9105 14.6475C10.6022 15.3392 11.5218 15.7201 12.5 15.7201C13.4782 15.7201 14.3978 15.3392 15.0881 14.6488L16.1666 13.576L22.4941 19.8633H2.50591ZM23.5352 18.8327L17.2052 12.543L23.5352 6.24634V18.8327Z" fill="#FAF5F5"/>
</svg>
