<svg width="50" height="50" viewBox="0 0 50 50" fill="none" xmlns="http://www.w3.org/2000/svg">
<g clip-path="url(#clip0)">
<path d="M24.7052 15.1221L18.4552 21.3721C18.2924 21.5348 18.2924 21.7985 18.4552 21.9613C18.618 22.124 18.8816 22.124 19.0444 21.9613L24.5831 16.4225V34.5833C24.5831 34.8136 24.7695 35 24.9998 35C25.2301 35 25.4165 34.8136 25.4165 34.5833V16.4225L30.9552 21.9613C31.118 22.124 31.3816 22.124 31.5444 21.9613C31.6257 21.8799 31.6664 21.7732 31.6664 21.6666C31.6664 21.56 31.6257 21.4534 31.5444 21.372L25.2944 15.122C25.1316 14.9593 24.868 14.9593 24.7052 15.1221Z" fill="#FAF5F5"/>
</g>
<circle cx="25" cy="25" r="24.75" transform="rotate(-90 25 25)" stroke="#FAF5F5" stroke-opacity="0.1" stroke-width="0.5"/>
<defs>
<clipPath id="clip0">
<rect width="20" height="20" fill="white" transform="translate(15 35) rotate(-90)"/>
</clipPath>
</defs>
</svg>
